<svg xmlns="http://www.w3.org/2000/svg" viewBox="0 0 200 200" width="200" height="200" role="img" aria-label="Panda pensativo">
  <title>Panda pensativo</title>
  <style><![CDATA[
.head{transform-box:view-box;transform-origin:100px 102px;animation:h 4.5s ease-in-out infinite}
.body{transform-box:fill-box;transform-origin:center;animation:b 4.5s ease-in-out infinite}
.arm-l{transform-box:view-box;transform-origin:80px 118px;animation:al 4.5s ease-in-out infinite}
.arm-r{transform-box:view-box;transform-origin:120px 118px;animation:ar 4.5s ease-in-out infinite}
.foot-l,.foot-r{animation:b 4.5s ease-in-out infinite}
.eyes{transform-box:fill-box;transform-origin:center;animation:gl 4.5s ease-in-out infinite}
.mouth{transform-box:fill-box;transform-origin:center;animation:ch 4.5s ease-in-out infinite}
.extra{transform-box:view-box;transform-origin:center;animation:think 2.4s ease-in-out infinite}
@keyframes h{0%,100%{transform:rotate(7deg)}55%{transform:rotate(7deg)}72%{transform:rotate(11deg)}88%{transform:rotate(11deg)}}
@keyframes b{0%,100%{transform:scale(1)}50%{transform:scale(1.02)}}
@keyframes al{0%,100%{transform:rotate(0)}50%{transform:rotate(3deg)}}
@keyframes ar{0%,100%{transform:rotate(0)}50%{transform:rotate(-1deg)}}
@keyframes gl{0%,100%{transform:translateX(0)}30%{transform:translateX(2px)}60%{transform:translateX(-1.5px)}}
@keyframes ch{0%,100%{transform:rotate(0)}50%{transform:rotate(-4deg)}}
@keyframes think{0%,100%{transform:scale(.85);opacity:.4}50%{transform:scale(1.12);opacity:1}}
@media(prefers-reduced-motion:reduce){.panda *{animation:none!important}}]]></style>
  <defs>
    <g id="foot">
      <path d="M84 170Q80 179 80 187Q80 196 89 196Q98 196 98 187Q98 179 94 170Z" fill="#fff" stroke="#2b2b2b" stroke-width="1.5"/>
      <path d="M80.2 185Q80.5 196 89 196Q97.5 196 97.8 185Q97 193.5 89 194Q81 193.5 80.2 185Z" fill="#000" opacity="0.11"/>
      <rect x="81" y="168" width="16" height="6.5" rx="3.25" fill="#fff" stroke="#2b2b2b" stroke-width="1.5"/>
      <path d="M84 181H94" fill="none" stroke="#ff9ec2" stroke-width="2" stroke-linecap="round"/>
    </g>
    <path id="patch" d="M71 29C63 33 67 55 80 62C90 66 97 56 94 47C93 34 81 26 71 29Z" fill="#2b2b2b"/>
    <path id="arm" d="M82 116Q68 110 60 121L60 134Q58 138 58 147L58 152A2.75 2.75 0 0 0 63.5 152L63.5 147Q64.4 148.5 65.25 147L65.25 152.5A2.75 2.75 0 0 0 70.75 152.5L70.75 147Q71.6 148.5 72.5 147L72.5 152A2.75 2.75 0 0 0 78 152L78 147Q78 138 76 134L82 116Z"/>
  </defs>
  <g class="panda" data-emotion="pensativo" fill="#2b2b2b" stroke-linejoin="round">
    <g class="legs" stroke="#fff" stroke-width="0.875"><rect x="83.5" y="150" width="11" height="30" rx="5.5"/><rect x="105.5" y="150" width="11" height="30" rx="5.5"/></g>
    <g class="foot-l"><use href="#foot" transform="rotate(-6 89 184)"/></g>
    <g class="foot-r"><use href="#foot" transform="matrix(-1 0 0 1 200 0) rotate(-6 89 184)"/></g>
    <g class="arms" stroke="#fff" stroke-width="0.875">
      <g class="arm-l"><g transform="rotate(127 80 118)"><use href="#arm"/></g></g>
      <g class="arm-r"><g transform="matrix(-1 0 0 1 200 0) rotate(6 80 118)"><use href="#arm"/></g></g>
    </g>
    <ellipse class="body" cx="100" cy="126" rx="27" ry="28" fill="#fff" stroke="#2b2b2b" stroke-width="3"/>
    <g class="head" transform="rotate(9 100 102)">
      <g class="ears" stroke="#fff" stroke-width="0.875"><circle cx="64" cy="27" r="16"/><circle cx="136" cy="22" r="16"/></g>
      <circle cx="64" cy="27" r="8" fill="#5b4a4a"/><circle cx="136" cy="22" r="8" fill="#5b4a4a"/>
      <circle class="skull" cx="100" cy="56" r="46" fill="#fff" stroke="#2b2b2b" stroke-width="3"/>
      <g class="patches">
        <use href="#patch" transform="translate(85 50) rotate(2) translate(-85 -50)"/>
        <use href="#patch" transform="matrix(-1 0 0 1 200 0) translate(85 50) rotate(-14) translate(-85 -50)"/>
      </g>
      <g class="eyes">
        <path d="M78 54 Q85 49 92 57 Q85 59 78 54 Z" fill="#fff"/>
        <path d="M108 54 Q115 49 122 57 Q115 59 108 54 Z" fill="#fff"/>
        <circle cx="87" cy="53" r="3.4" fill="#2b2b2b"/><circle cx="117" cy="53" r="3.4" fill="#2b2b2b"/>
        <circle cx="86" cy="51.5" r="1.3" fill="#fff"/><circle cx="116" cy="51.5" r="1.3" fill="#fff"/>
      </g>
      <ellipse class="nose" cx="100" cy="69" rx="5.8" ry="4"/>
      <g class="mouth"><path d="M96 80 Q103 81 105 75" fill="none" stroke="#2b2b2b" stroke-width="2.5" stroke-linecap="round"/></g>
    </g>
    <g class="extra" fill="#2b2b2b">
      <circle cx="150" cy="40" r="2"/><circle cx="159" cy="31" r="3"/><circle cx="171" cy="20" r="4.2"/>
    </g>
  </g>
</svg>
