<?xml version="1.0" encoding="UTF-8"?>
<!-- flove · custom logo marks · category gradients · used by apps/index.html and inlinable into any app HTML -->
<svg xmlns="http://www.w3.org/2000/svg" id="flove-marks" aria-hidden="true">
<defs>
<linearGradient id="grad-metafisica" x1="14" y1="14" x2="86" y2="86" gradientUnits="userSpaceOnUse"><stop offset="0%" stop-color="#c133ff"/><stop offset="50%" stop-color="#6a3aff"/><stop offset="100%" stop-color="#ff8aae"/></linearGradient>
<linearGradient id="grad-ciencia" x1="14" y1="14" x2="86" y2="86" gradientUnits="userSpaceOnUse"><stop offset="0%" stop-color="#2a9aff"/><stop offset="50%" stop-color="#6a3aff"/><stop offset="100%" stop-color="#8ac4ff"/></linearGradient>
<linearGradient id="grad-biologia" x1="14" y1="14" x2="86" y2="86" gradientUnits="userSpaceOnUse"><stop offset="0%" stop-color="#33d97a"/><stop offset="50%" stop-color="#6dd933"/><stop offset="100%" stop-color="#8affd0"/></linearGradient>
<linearGradient id="grad-lenguajes" x1="14" y1="14" x2="86" y2="86" gradientUnits="userSpaceOnUse"><stop offset="0%" stop-color="#ff8aae"/><stop offset="50%" stop-color="#c133ff"/><stop offset="100%" stop-color="#ffd9d9"/></linearGradient>
<linearGradient id="grad-psico" x1="14" y1="14" x2="86" y2="86" gradientUnits="userSpaceOnUse"><stop offset="0%" stop-color="#ff8a8a"/><stop offset="50%" stop-color="#ff8a3a"/><stop offset="100%" stop-color="#ffd28a"/></linearGradient>
<linearGradient id="grad-social" x1="14" y1="14" x2="86" y2="86" gradientUnits="userSpaceOnUse"><stop offset="0%" stop-color="#ff3344"/><stop offset="50%" stop-color="#ff8a3a"/><stop offset="100%" stop-color="#ffd633"/></linearGradient>
<linearGradient id="grad-economia" x1="14" y1="14" x2="86" y2="86" gradientUnits="userSpaceOnUse"><stop offset="0%" stop-color="#ffd28a"/><stop offset="50%" stop-color="#ffd633"/><stop offset="100%" stop-color="#6dd933"/></linearGradient>
</defs>
<symbol id="mark-whole" viewBox="0 0 100 100"><g fill="none" stroke-width="5" stroke-linecap="round" stroke-linejoin="round"><circle cx="50" cy="50" r="36" stroke="url(#grad-metafisica)" fill="none"/><circle cx="50" cy="50" r="22" stroke="url(#grad-metafisica)" fill="none"/><circle cx="50" cy="50" r="8" fill="url(#grad-metafisica)" stroke="none"/></g></symbol>
<symbol id="mark-goddess" viewBox="0 0 100 100"><g fill="none" stroke-width="5" stroke-linecap="round" stroke-linejoin="round"><path d="M64 22 a30 30 0 1 0 0 56 a18 18 0 1 1 0 -56 z" fill="url(#grad-metafisica)" stroke="none"/><circle cx="32" cy="50" r="5" fill="url(#grad-metafisica)" stroke="none"/></g></symbol>
<symbol id="mark-openastro" viewBox="0 0 100 100"><g fill="none" stroke-width="5" stroke-linecap="round" stroke-linejoin="round"><g transform="rotate(-20 50 50)"><ellipse cx="50" cy="50" rx="38" ry="14" stroke="url(#grad-metafisica)" fill="none"/><ellipse cx="50" cy="50" rx="28" ry="10" stroke="url(#grad-metafisica)" fill="none"/><ellipse cx="50" cy="50" rx="18" ry="7" stroke="url(#grad-metafisica)" fill="none"/></g><circle cx="50" cy="50" r="5" fill="url(#grad-metafisica)" stroke="none"/></g></symbol>
<symbol id="mark-polarities" viewBox="0 0 100 100"><g fill="none" stroke-width="5" stroke-linecap="round" stroke-linejoin="round"><circle cx="50" cy="50" r="36" stroke="url(#grad-metafisica)" fill="none"/><path d="M50 14 A36 36 0 0 1 50 86 A18 18 0 0 1 50 50 A18 18 0 0 0 50 14 Z" fill="url(#grad-metafisica)" stroke="none"/><circle cx="50" cy="32" r="3" fill="url(#grad-metafisica)" stroke="none"/></g></symbol>
<symbol id="mark-triads" viewBox="0 0 100 100"><g fill="none" stroke-width="5" stroke-linecap="round" stroke-linejoin="round"><circle cx="50" cy="22" r="9" fill="url(#grad-metafisica)" stroke="none"/><circle cx="22" cy="74" r="9" fill="url(#grad-metafisica)" stroke="none"/><circle cx="78" cy="74" r="9" fill="url(#grad-metafisica)" stroke="none"/><line x1="50" y1="22" x2="22" y2="74" stroke="url(#grad-metafisica)" stroke-width="2.5"/><line x1="50" y1="22" x2="78" y2="74" stroke="url(#grad-metafisica)" stroke-width="2.5"/><line x1="22" y1="74" x2="78" y2="74" stroke="url(#grad-metafisica)" stroke-width="2.5"/></g></symbol>
<symbol id="mark-confluences" viewBox="0 0 100 100"><g fill="none" stroke-width="5" stroke-linecap="round" stroke-linejoin="round"><g stroke="url(#grad-metafisica)" fill="none"><line x1="50" y1="86" x2="14" y2="20"/><line x1="50" y1="86" x2="30" y2="14"/><line x1="50" y1="86" x2="50" y2="14"/><line x1="50" y1="86" x2="70" y2="14"/><line x1="50" y1="86" x2="86" y2="20"/></g><circle cx="50" cy="86" r="5" fill="url(#grad-metafisica)" stroke="none"/></g></symbol>
<symbol id="mark-cyclon" viewBox="0 0 100 100"><g fill="none" stroke-width="5" stroke-linecap="round" stroke-linejoin="round"><path d="M50 50 m0 -28 a28 28 0 1 1 -.01 0 M50 50 m0 -18 a18 18 0 1 0 .01 0 M50 50 m0 -8 a8 8 0 1 1 .01 0" stroke="url(#grad-metafisica)" fill="none" stroke-linecap="round"/></g></symbol>
<symbol id="mark-simplex" viewBox="0 0 100 100"><g fill="none" stroke-width="5" stroke-linecap="round" stroke-linejoin="round"><polygon points="50,18 84,76 16,76" fill="url(#grad-metafisica)" stroke="none" stroke-linejoin="round"/></g></symbol>
<symbol id="mark-fuzzy" viewBox="0 0 100 100"><g fill="none" stroke-width="5" stroke-linecap="round" stroke-linejoin="round"><circle cx="38" cy="50" r="22" stroke="url(#grad-ciencia)" fill="none"/><circle cx="62" cy="50" r="22" stroke="url(#grad-ciencia)" fill="none"/><line x1="50" y1="28" x2="50" y2="72" stroke="url(#grad-ciencia)" stroke-width="2.5"/></g></symbol>
<symbol id="mark-fuzzy-view" viewBox="0 0 100 100"><g fill="none" stroke-width="5" stroke-linecap="round" stroke-linejoin="round"><path d="M14 50 Q50 18 86 50 Q50 82 14 50 Z" stroke="url(#grad-ciencia)" fill="none"/><circle cx="50" cy="50" r="11" fill="url(#grad-ciencia)" stroke="none"/><circle cx="54" cy="46" r="3" fill="#fff8f1" stroke="none"/></g></symbol>
<symbol id="mark-fuzzy-rate" viewBox="0 0 100 100"><g fill="none" stroke-width="5" stroke-linecap="round" stroke-linejoin="round"><g fill="url(#grad-ciencia)" stroke="none"><circle cx="14" cy="50" r="3"/><circle cx="26" cy="50" r="4"/><circle cx="38" cy="50" r="5"/><circle cx="50" cy="50" r="6"/><circle cx="62" cy="50" r="7"/><circle cx="74" cy="50" r="8"/><circle cx="86" cy="50" r="9"/></g></g></symbol>
<symbol id="mark-fuzzy-wise" viewBox="0 0 100 100"><g fill="none" stroke-width="5" stroke-linecap="round" stroke-linejoin="round"><ellipse cx="50" cy="50" rx="34" ry="22" stroke="url(#grad-ciencia)" fill="none"/><circle cx="50" cy="50" r="14" fill="url(#grad-ciencia)" stroke="none"/><circle cx="56" cy="46" r="3.5" fill="#fff8f1" stroke="none"/></g></symbol>
<symbol id="mark-combos" viewBox="0 0 100 100"><g fill="none" stroke-width="5" stroke-linecap="round" stroke-linejoin="round"><circle cx="36" cy="40" r="22" stroke="url(#grad-ciencia)" fill="none"/><circle cx="64" cy="40" r="22" stroke="url(#grad-ciencia)" fill="none"/><circle cx="50" cy="66" r="22" stroke="url(#grad-ciencia)" fill="none"/></g></symbol>
<symbol id="mark-hackboth" viewBox="0 0 100 100"><g fill="none" stroke-width="5" stroke-linecap="round" stroke-linejoin="round"><rect x="16" y="16" width="68" height="68" rx="6" stroke="url(#grad-ciencia)" fill="none"/><path d="M16 16 L84 16 L84 84 Z" fill="url(#grad-ciencia)" stroke="none"/></g></symbol>
<symbol id="mark-diesafe" viewBox="0 0 100 100"><g fill="none" stroke-width="5" stroke-linecap="round" stroke-linejoin="round"><rect x="44" y="50" width="12" height="34" rx="2" fill="url(#grad-biologia)" stroke="none"/><line x1="50" y1="50" x2="50" y2="44" stroke="url(#grad-biologia)"/><path d="M50 44 Q40 32 50 14 Q60 32 50 44 Z" fill="url(#grad-biologia)" stroke="none"/><line x1="36" y1="84" x2="64" y2="84" stroke="url(#grad-biologia)"/></g></symbol>
<symbol id="mark-realy" viewBox="0 0 100 100"><g fill="none" stroke-width="5" stroke-linecap="round" stroke-linejoin="round"><g stroke="url(#grad-lenguajes)" fill="none"><path d="M14 30 Q34 50 54 30 T 86 30"/><path d="M14 50 Q34 70 54 50 T 86 50"/><path d="M14 70 Q34 50 54 70 T 86 70"/></g></g></symbol>
<symbol id="mark-keys" viewBox="0 0 100 100"><g fill="none" stroke-width="5" stroke-linecap="round" stroke-linejoin="round"><circle cx="28" cy="50" r="14" stroke="url(#grad-lenguajes)" fill="none"/><line x1="42" y1="50" x2="86" y2="50" stroke="url(#grad-lenguajes)"/><line x1="74" y1="50" x2="74" y2="62" stroke="url(#grad-lenguajes)"/><line x1="84" y1="50" x2="84" y2="58" stroke="url(#grad-lenguajes)"/></g></symbol>
<symbol id="mark-souls" viewBox="0 0 100 100"><g fill="none" stroke-width="5" stroke-linecap="round" stroke-linejoin="round"><circle cx="50" cy="50" r="14" fill="url(#grad-psico)" stroke="none"/><g stroke="url(#grad-psico)" fill="none"><line x1="50" y1="14" x2="50" y2="22"/><line x1="50" y1="78" x2="50" y2="86"/><line x1="14" y1="50" x2="22" y2="50"/><line x1="78" y1="50" x2="86" y2="50"/><line x1="22" y1="22" x2="28" y2="28"/><line x1="78" y1="78" x2="72" y2="72"/><line x1="22" y1="78" x2="28" y2="72"/><line x1="78" y1="22" x2="72" y2="28"/></g></g></symbol>
<symbol id="mark-avatar" viewBox="0 0 100 100"><g fill="none" stroke-width="5" stroke-linecap="round" stroke-linejoin="round"><circle cx="50" cy="34" r="14" fill="url(#grad-psico)" stroke="none"/><path d="M22 86 Q22 56 50 56 Q78 56 78 86 Z" fill="url(#grad-psico)" stroke="none"/></g></symbol>
<symbol id="mark-wanty" viewBox="0 0 100 100"><g fill="none" stroke-width="5" stroke-linecap="round" stroke-linejoin="round"><path d="M50 12 L56 44 L88 50 L56 56 L50 88 L44 56 L12 50 L44 44 Z" fill="url(#grad-psico)" stroke="none"/></g></symbol>
<symbol id="mark-sensy" viewBox="0 0 100 100"><g fill="none" stroke-width="5" stroke-linecap="round" stroke-linejoin="round"><path d="M50 70 C 30 56, 18 44, 22 32 C 26 22, 40 22, 50 36 C 60 22, 74 22, 78 32 C 82 44, 70 56, 50 70 Z" fill="url(#grad-psico)" stroke="none"/><path d="M14 76 Q26 80 28 88" stroke="url(#grad-psico)" fill="none" stroke-width="3"/><path d="M86 76 Q74 80 72 88" stroke="url(#grad-psico)" fill="none" stroke-width="3"/></g></symbol>
<symbol id="mark-5loves" viewBox="0 0 100 100"><g fill="none" stroke-width="5" stroke-linecap="round" stroke-linejoin="round"><path d="M50 78 C 28 64, 16 50, 22 36 C 26 26, 40 26, 50 40 C 60 26, 74 26, 78 36 C 84 50, 72 64, 50 78 Z" stroke="url(#grad-psico)" fill="none"/><g fill="url(#grad-psico)" stroke="none"><circle cx="50" cy="38" r="3"/><circle cx="34" cy="48" r="3"/><circle cx="66" cy="48" r="3"/><circle cx="40" cy="62" r="3"/><circle cx="60" cy="62" r="3"/></g></g></symbol>
<symbol id="mark-crumbler" viewBox="0 0 100 100"><g fill="none" stroke-width="5" stroke-linecap="round" stroke-linejoin="round"><path d="M50 78 C 28 64, 16 50, 22 36 C 26 26, 40 26, 50 40 C 60 26, 74 26, 78 36 C 84 50, 72 64, 50 78 Z" stroke="url(#grad-psico)" fill="none"/><path d="M40 30 L46 42 L38 50 L48 60 L42 72" stroke="url(#grad-psico)" fill="none" stroke-width="3"/></g></symbol>
<symbol id="mark-loves" viewBox="0 0 100 100"><g fill="none" stroke-width="5" stroke-linecap="round" stroke-linejoin="round"><path d="M50 72 C 30 58, 18 46, 22 34 C 26 24, 40 24, 50 38 C 60 24, 74 24, 78 34 C 82 46, 70 58, 50 72 Z" fill="url(#grad-social)" stroke="none"/><path d="M50 72 C 50 80, 50 86, 50 92" stroke="url(#grad-social)" fill="none" stroke-width="4"/></g></symbol>
<symbol id="mark-myfamily" viewBox="0 0 100 100"><g fill="none" stroke-width="5" stroke-linecap="round" stroke-linejoin="round"><g fill="url(#grad-social)" stroke="none"><circle cx="36" cy="40" r="13"/><circle cx="64" cy="40" r="13"/><circle cx="50" cy="68" r="11"/></g></g></symbol>
<symbol id="mark-parenting" viewBox="0 0 100 100"><g fill="none" stroke-width="5" stroke-linecap="round" stroke-linejoin="round"><circle cx="50" cy="50" r="32" stroke="url(#grad-social)" fill="none"/><circle cx="50" cy="50" r="14" fill="url(#grad-social)" stroke="none"/></g></symbol>
<symbol id="mark-daty" viewBox="0 0 100 100"><g fill="none" stroke-width="5" stroke-linecap="round" stroke-linejoin="round"><g fill="url(#grad-social)" stroke="none"><path d="M40 70 C 22 58, 12 46, 18 34 C 22 26, 34 26, 42 36 C 46 32, 50 32, 52 36 C 50 44, 46 56, 40 70 Z"/><path d="M60 70 C 78 58, 88 46, 82 34 C 78 26, 66 26, 58 36 C 54 32, 50 32, 48 36 C 50 44, 54 56, 60 70 Z"/></g></g></symbol>
<symbol id="mark-maty" viewBox="0 0 100 100"><g fill="none" stroke-width="5" stroke-linecap="round" stroke-linejoin="round"><circle cx="36" cy="50" r="22" stroke="url(#grad-social)" fill="none"/><circle cx="64" cy="50" r="22" stroke="url(#grad-social)" fill="none"/></g></symbol>
<symbol id="mark-genderwars" viewBox="0 0 100 100"><g fill="none" stroke-width="5" stroke-linecap="round" stroke-linejoin="round"><circle cx="50" cy="50" r="18" stroke="url(#grad-social)" fill="none"/><line x1="50" y1="68" x2="50" y2="86" stroke="url(#grad-social)"/><line x1="42" y1="78" x2="58" y2="78" stroke="url(#grad-social)"/><line x1="62" y1="38" x2="82" y2="18" stroke="url(#grad-social)"/><path d="M70 14 L86 14 L86 30" stroke="url(#grad-social)" fill="none"/></g></symbol>
<symbol id="mark-freedoms" viewBox="0 0 100 100"><g fill="none" stroke-width="5" stroke-linecap="round" stroke-linejoin="round"><path d="M14 50 Q30 30 50 50 Q70 30 86 50" stroke="url(#grad-social)" fill="none"/><path d="M50 50 L50 60" stroke="url(#grad-social)" fill="none"/><circle cx="50" cy="64" r="2.5" fill="url(#grad-social)" stroke="none"/></g></symbol>
<symbol id="mark-thingy" viewBox="0 0 100 100"><g fill="none" stroke-width="5" stroke-linecap="round" stroke-linejoin="round"><rect x="18" y="34" width="64" height="48" rx="3" stroke="url(#grad-economia)" fill="none"/><line x1="50" y1="34" x2="50" y2="82" stroke="url(#grad-economia)"/><line x1="18" y1="50" x2="82" y2="50" stroke="url(#grad-economia)"/><path d="M38 28 Q44 14 50 28 Q56 14 62 28 L62 34 L38 34 Z" fill="url(#grad-economia)" stroke="none"/></g></symbol>
<symbol id="mark-crowdcrafting" viewBox="0 0 100 100"><g fill="none" stroke-width="5" stroke-linecap="round" stroke-linejoin="round"><circle cx="50" cy="50" r="32" stroke="url(#grad-economia)" fill="none"/><g stroke="url(#grad-economia)" fill="none" stroke-width="2.5"><path d="M22 42 Q50 50 78 42"/><path d="M22 50 Q50 58 78 50"/><path d="M22 58 Q50 66 78 58"/><path d="M30 28 Q50 42 70 28"/><path d="M30 72 Q50 58 70 72"/></g></g></symbol>
<symbol id="mark-worthing" viewBox="0 0 100 100"><g fill="none" stroke-width="5" stroke-linecap="round" stroke-linejoin="round"><circle cx="50" cy="50" r="32" stroke="url(#grad-economia)" fill="none"/><path d="M50 64 C 36 64, 28 52, 30 38 C 44 40, 54 50, 50 64 Z" fill="url(#grad-economia)" stroke="none"/><path d="M50 64 C 64 64, 72 52, 70 38 C 56 40, 46 50, 50 64 Z" fill="url(#grad-economia)" stroke="none"/></g></symbol>
<symbol id="mark-deal" viewBox="0 0 100 100"><g fill="none" stroke-width="5" stroke-linecap="round" stroke-linejoin="round"><circle cx="22" cy="50" r="14" stroke="url(#grad-economia)" fill="none"/><circle cx="78" cy="50" r="14" stroke="url(#grad-economia)" fill="none"/><line x1="36" y1="50" x2="64" y2="50" stroke="url(#grad-economia)" stroke-width="3"/><path d="M58 44 L64 50 L58 56" stroke="url(#grad-economia)" fill="none"/></g></symbol>
<symbol id="mark-reward" viewBox="0 0 100 100"><g fill="none" stroke-width="5" stroke-linecap="round" stroke-linejoin="round"><rect x="20" y="38" width="60" height="46" rx="2" stroke="url(#grad-economia)" fill="none"/><line x1="50" y1="38" x2="50" y2="84" stroke="url(#grad-economia)"/><line x1="20" y1="54" x2="80" y2="54" stroke="url(#grad-economia)"/><path d="M34 30 Q44 12 50 30 Q56 12 66 30 L66 38 L34 38 Z" fill="url(#grad-economia)" stroke="none"/></g></symbol>
<symbol id="mark-freed" viewBox="0 0 100 100"><g fill="none" stroke-width="5" stroke-linecap="round" stroke-linejoin="round"><path d="M50 78 C 32 70, 18 56, 22 38 Q34 38 42 50 Q40 36 50 28 Q60 36 58 50 Q66 38 78 38 C 82 56, 68 70, 50 78 Z" fill="url(#grad-economia)" stroke="none"/></g></symbol>
<symbol id="mark-kindswap" viewBox="0 0 100 100"><g fill="none" stroke-width="5" stroke-linecap="round" stroke-linejoin="round"><path d="M14 46 Q14 80 50 80 Q86 80 86 46" stroke="url(#grad-economia)" fill="none"/><line x1="14" y1="46" x2="14" y2="38" stroke="url(#grad-economia)"/><line x1="86" y1="46" x2="86" y2="38" stroke="url(#grad-economia)"/><circle cx="50" cy="62" r="6" fill="url(#grad-economia)" stroke="none"/></g></symbol>
<symbol id="mark-simple-things" viewBox="0 0 100 100"><g fill="none" stroke-width="5" stroke-linecap="round" stroke-linejoin="round"><g fill="url(#grad-economia)" stroke="none"><circle cx="22" cy="50" r="10"/><rect x="40" y="40" width="20" height="20" rx="2"/><polygon points="78,40 88,60 68,60"/></g></g></symbol>
<symbol id="mark-add-offers" viewBox="0 0 100 100"><g fill="none" stroke-width="5" stroke-linecap="round" stroke-linejoin="round"><g stroke="url(#grad-economia)" fill="none" stroke-width="6"><line x1="50" y1="22" x2="50" y2="78"/><line x1="22" y1="50" x2="78" y2="50"/></g><g fill="url(#grad-economia)" stroke="none"><circle cx="20" cy="20" r="2.5"/><circle cx="80" cy="20" r="2.5"/><circle cx="20" cy="80" r="2.5"/><circle cx="80" cy="80" r="2.5"/></g></g></symbol>
<symbol id="mark-tell-wants" viewBox="0 0 100 100"><g fill="none" stroke-width="5" stroke-linecap="round" stroke-linejoin="round"><path d="M16 42 Q16 24 32 24 Q40 14 52 20 Q64 14 72 26 Q88 28 84 46 Q88 62 72 62 L60 62 L48 78 L48 62 L32 62 Q16 60 16 42 Z" stroke="url(#grad-economia)" fill="none"/></g></symbol>
<symbol id="mark-shareful" viewBox="0 0 100 100"><g fill="none" stroke-width="5" stroke-linecap="round" stroke-linejoin="round"><circle cx="50" cy="50" r="14" stroke="url(#grad-economia)" fill="none"/><path d="M28 30 Q22 50 28 70" stroke="url(#grad-economia)" fill="none"/><path d="M72 30 Q78 50 72 70" stroke="url(#grad-economia)" fill="none"/><line x1="22" y1="30" x2="34" y2="30" stroke="url(#grad-economia)"/><line x1="22" y1="30" x2="22" y2="42" stroke="url(#grad-economia)"/><line x1="78" y1="70" x2="66" y2="70" stroke="url(#grad-economia)"/><line x1="78" y1="70" x2="78" y2="58" stroke="url(#grad-economia)"/></g></symbol>
<symbol id="mark-clauses" viewBox="0 0 100 100"><g fill="none" stroke-width="5" stroke-linecap="round" stroke-linejoin="round"><line x1="50" y1="18" x2="50" y2="84" stroke="url(#grad-economia)" stroke-width="3"/><line x1="20" y1="34" x2="80" y2="34" stroke="url(#grad-economia)" stroke-width="3"/><line x1="20" y1="34" x2="20" y2="48" stroke="url(#grad-economia)" fill="none"/><line x1="80" y1="34" x2="80" y2="48" stroke="url(#grad-economia)" fill="none"/><ellipse cx="20" cy="56" rx="14" ry="6" stroke="url(#grad-economia)" fill="none"/><ellipse cx="80" cy="56" rx="14" ry="6" stroke="url(#grad-economia)" fill="none"/><line x1="36" y1="84" x2="64" y2="84" stroke="url(#grad-economia)"/></g></symbol>
<symbol id="mark-instashare" viewBox="0 0 100 100"><g fill="none" stroke-width="5" stroke-linecap="round" stroke-linejoin="round"><polygon points="42,12 62,42 50,46 60,86 38,56 50,52" fill="url(#grad-economia)" stroke="none"/></g></symbol>
</svg>
