<svg xmlns="http://www.w3.org/2000/svg" viewBox="0 0 200 200" width="200" height="200" role="img" aria-label="Panda preocupado">
  <title>Panda preocupado</title>
  <defs>
    <g id="foot">
      <path d="M84 170Q80 179 80 187Q80 196 89 196Q98 196 98 187Q98 179 94 170Z" fill="#fff" stroke="#2b2b2b" stroke-width="1.5"/>
      <path d="M80.2 185Q80.5 196 89 196Q97.5 196 97.8 185Q97 193.5 89 194Q81 193.5 80.2 185Z" fill="#000" opacity="0.11"/>
      <path d="M82 190Q83 196 89 196Q95 196 96 190Q95 194 89 194.6Q83 194 82 190Z" fill="#000" opacity="0.1"/>
      <rect x="81" y="168" width="16" height="6.5" rx="3.25" fill="#fff" stroke="#2b2b2b" stroke-width="1.5"/>
      <path d="M84 181H94" fill="none" stroke="#ff9ec2" stroke-width="2" stroke-linecap="round"/>
    </g>
    <path id="patch" d="M71 29C63 33 67 55 80 62C90 66 97 56 94 47C93 34 81 26 71 29Z" fill="#2b2b2b"/>
    <path id="drop" d="M0 -7 q-5 9 0 13 q5 -4 0 -13 z" fill="#8fd3f4" stroke="#5bb4d6" stroke-width="1"/>
  </defs>
  <g class="panda" data-emotion="preocupado" fill="#2b2b2b" stroke-linejoin="round">
    <g class="legs" stroke="#fff" stroke-width="0.875">
      <rect x="83.5" y="150" width="11" height="30" rx="5.5"/>
      <rect x="105.5" y="150" width="11" height="30" rx="5.5"/>
    </g>
    <use href="#foot" transform="rotate(-6 89 184)"/>
    <use href="#foot" transform="matrix(-1 0 0 1 200 0) rotate(-6 89 184)"/>
    <g class="arms" stroke="#fff" stroke-width="0.875">
      <path class="arm-l" d="M82 116Q68 110 60 121L60 134Q58 138 58 147L58 152A2.75 2.75 0 0 0 63.5 152L63.5 147Q64.4 148.5 65.25 147L65.25 152.5A2.75 2.75 0 0 0 70.75 152.5L70.75 147Q71.6 148.5 72.5 147L72.5 152A2.75 2.75 0 0 0 78 152L78 147Q78 138 76 134L82 116Z"/>
      <path class="arm-r" d="M118 116Q132 110 140 121L140 134Q142 138 142 147L142 152A2.75 2.75 0 0 1 136.5 152L136.5 147Q135.6 148.5 134.75 147L134.75 152.5A2.75 2.75 0 0 1 129.25 152.5L129.25 147Q128.4 148.5 127.5 147L127.5 152A2.75 2.75 0 0 1 122 152L122 147Q122 138 124 134L118 116Z"/>
    </g>
    <ellipse class="body" cx="100" cy="126" rx="27" ry="28" fill="#fff" stroke="#2b2b2b" stroke-width="3"/>
    <g class="head">
      <g class="ears" stroke="#fff" stroke-width="0.875"><circle cx="64" cy="26" r="16"/><circle cx="136" cy="26" r="16"/></g>
      <circle cx="64" cy="26" r="8" fill="#5b4a4a"/><circle cx="136" cy="26" r="8" fill="#5b4a4a"/>
      <circle class="skull" cx="100" cy="56" r="46" fill="#fff" stroke="#2b2b2b" stroke-width="3"/>
      <g class="patches"><use href="#patch"/><use href="#patch" transform="matrix(-1 0 0 1 200 0)"/></g>
      <g class="eyes">
        <ellipse cx="85" cy="55" rx="5.2" ry="4.6" fill="#fff"/>
        <ellipse cx="115" cy="55" rx="5.2" ry="4.6" fill="#fff"/>
        <circle cx="85" cy="53.5" r="3" fill="#2b2b2b"/>
        <circle cx="115" cy="53.5" r="3" fill="#2b2b2b"/>
        <circle cx="83.8" cy="52" r="1.2" fill="#fff"/>
        <circle cx="113.8" cy="52" r="1.2" fill="#fff"/>
      </g>
      <ellipse class="nose" cx="100" cy="69" rx="5.8" ry="4"/>
      <g class="mouth">
        <path d="M91 80 Q95.5 75 100 80 Q104.5 85 109 80" fill="none" stroke="#2b2b2b" stroke-width="2.5" stroke-linecap="round"/>
      </g>
    </g>
    <g class="extra">
      <use href="#drop" transform="translate(132 46)"/>
    </g>
  </g>
</svg>
