<svg xmlns="http://www.w3.org/2000/svg" width="940" height="400" viewBox="0 0 470 200">
<style>
@media (prefers-reduced-motion: reduce){*{animation:none !important}}
  .eyeR{transform-box:fill-box;transform-origin:center;animation:wink 2.4s ease-in-out infinite}
  @keyframes wink{0%,34%,46%,100%{transform:scaleY(1)}40%{transform:scaleY(.15)}}
  .face{transform-box:fill-box;transform-origin:center;animation:nod 2.4s ease-in-out infinite}
  @keyframes nod{0%,34%,46%,100%{transform:rotate(0)}40%{transform:rotate(-3deg)}}
  .tld{transform-box:fill-box;transform-origin:center;animation:twk 2.4s ease-in-out infinite}
  @keyframes twk{0%,34%,46%,100%{transform:scaleY(1) translateY(0)}40%{transform:scaleY(.35) translateY(3px)}}
</style>
  <defs><filter id="rlg" x="-30%" y="-30%" width="160%" height="160%"><feTurbulence type="turbulence" baseFrequency="0.019" numOctaves="2" seed="15" result="n"/><feDisplacementMap in="SourceGraphic" in2="n" scale="3.6"/></filter></defs>
  <g transform="translate(6,16) scale(0.82)">
    <g filter="url(#rlg)" fill="none" stroke="#141414" stroke-width="9" stroke-linecap="round" stroke-linejoin="round">
    <g class="face">
    <path class="face" d="M100,28 C142,28 172,60 172,100 C172,142 140,172 100,172 C58,172 28,140 28,100 C28,58 60,28 100,28 Z"/>
    <path class="eyeL" d="M64,88 C70,80 80,80 86,88"/>
    <path class="eyeR" d="M114,84 C122,92 130,92 138,84" stroke="#f4501e"/>
    <path class="smile" d="M62,116 C82,150 120,150 140,116"/>
    </g>
    </g>
  </g>
  <svg x="182" y="34" width="290" height="180" viewBox="0 0 300 200" overflow="visible">
    <text x="150" y="112" font-family="Arial, 'DejaVu Sans', sans-serif" font-weight="bold" font-size="72" letter-spacing="1" fill="#141414" text-anchor="middle">rısa</text>
    <path class="tld" d="M113,52 Q122,61 131,52" fill="none" stroke="#f4501e" stroke-width="7" stroke-linecap="round"/>
    <text x="150" y="148" font-family="Arial, 'DejaVu Sans', sans-serif" font-weight="bold" font-size="17" letter-spacing="7" fill="#141414" text-anchor="middle">LIBERADA</text>
  </svg>
</svg>
