<svg xmlns="http://www.w3.org/2000/svg" width="400" height="400" viewBox="0 0 200 200">
  <defs>
    <filter id="r16" x="-25%" y="-25%" width="150%" height="150%">
      <feTurbulence type="turbulence" baseFrequency="0.019" numOctaves="2" seed="16" result="n"/>
      <feDisplacementMap in="SourceGraphic" in2="n" scale="3.6"/>
    </filter>
  </defs>
  <g filter="url(#r16)" fill="none" stroke="#141414" stroke-width="9" stroke-linecap="round" stroke-linejoin="round">
    <path d="M52,86 C66,70 84,70 94,86"/>
    <path d="M106,86 C116,70 134,70 148,86"/>
    <path d="M56,110 C80,152 120,152 144,110 C120,134 80,134 56,110 Z" fill="#141414" stroke="#141414" stroke-width="6"/>
    <path d="M74,120 C84,134 116,134 126,120" stroke="#f4501e" stroke-width="7"/>
    <path d="M42,96 C36,108 36,118 42,122 C48,118 48,108 42,96 Z" fill="#f4501e" stroke="none"/>
    <path d="M158,96 C164,108 164,118 158,122 C152,118 152,108 158,96 Z" fill="#f4501e" stroke="none"/>
  </g>
</svg>
