<svg xmlns="http://www.w3.org/2000/svg" width="400" height="400" viewBox="0 0 200 200">
  <defs>
    <filter id="r17" x="-25%" y="-25%" width="150%" height="150%">
      <feTurbulence type="turbulence" baseFrequency="0.019" numOctaves="2" seed="17" result="n"/>
      <feDisplacementMap in="SourceGraphic" in2="n" scale="3.6"/>
    </filter>
  </defs>
  <g filter="url(#r17)" fill="none" stroke="#141414" stroke-width="9" stroke-linecap="round" stroke-linejoin="round">
    <path d="M40,44 C40,30 58,26 100,26 C150,26 166,32 166,54 C166,78 150,86 104,86 L74,86 L54,106 L60,86 C46,84 40,72 40,54 Z" fill="#ffffff"/>
    <path d="M96,42 C97,64 96,70 86,72 C78,72 74,66 74,60" stroke="#f4501e" stroke-width="8"/>
    <path d="M104,72 L114,42 L124,72 M108,60 L120,60" stroke="#f4501e" stroke-width="8"/>
    <path d="M138,42 L138,60 M138,68 L138,70" stroke="#f4501e" stroke-width="8"/>
  </g>
</svg>
