<svg xmlns="http://www.w3.org/2000/svg" width="400" height="400" viewBox="0 0 200 200">
  <defs>
    <filter id="r18" x="-25%" y="-25%" width="150%" height="150%">
      <feTurbulence type="turbulence" baseFrequency="0.019" numOctaves="2" seed="18" result="n"/>
      <feDisplacementMap in="SourceGraphic" in2="n" scale="3.6"/>
    </filter>
  </defs>
  <g filter="url(#r18)" fill="none" stroke="#141414" stroke-width="9" stroke-linecap="round" stroke-linejoin="round">
    <path d="M126,72 C144,72 149,90 139,99 C151,105 150,125 130,130 C104,139 76,137 66,121 C60,110 66,99 79,99 C77,87 87,77 100,81 C106,71 117,68 126,72 Z"/>
    <path d="M139,90 L164,86 L141,101 Z" fill="#f4501e" stroke="#f4501e" stroke-width="4"/>
    <circle cx="123" cy="88" r="3.2" fill="#141414" stroke="none"/>
    <path d="M90,111 C107,105 122,109 131,121"/>
    <path d="M66,114 L42,106 M68,123 L44,131"/>
    <path d="M94,134 L92,151 M113,134 L113,151"/>
    <circle cx="171" cy="72" r="4" fill="#f4501e" stroke="none"/>
    <path d="M158,62 C164,56 172,58 174,66" stroke="#f4501e" stroke-width="5"/>
  </g>
</svg>
