<svg xmlns="http://www.w3.org/2000/svg" width="400" height="400" viewBox="0 0 200 200">
  <defs>
    <filter id="r19" x="-25%" y="-25%" width="150%" height="150%">
      <feTurbulence type="turbulence" baseFrequency="0.019" numOctaves="2" seed="19" result="n"/>
      <feDisplacementMap in="SourceGraphic" in2="n" scale="3.6"/>
    </filter>
  </defs>
  <g filter="url(#r19)" fill="none" stroke="#141414" stroke-width="9" stroke-linecap="round" stroke-linejoin="round">
    <path d="M100,58 C124,58 142,76 142,100 C142,124 124,142 100,142 C76,142 58,124 58,100 C58,76 76,58 100,58 Z"/>
    <path d="M100,44 L100,26"/>
    <path d="M100,156 L100,174"/>
    <path d="M44,100 L26,100"/>
    <path d="M156,100 L174,100"/>
    <path d="M62,62 L48,48"/>
    <path d="M138,62 L152,48"/>
    <path d="M62,138 L48,152"/>
    <path d="M138,138 L152,152"/>
    <circle cx="86" cy="94" r="4" fill="#141414" stroke="none"/>
    <circle cx="114" cy="94" r="4" fill="#141414" stroke="none"/>
    <path d="M82,112 C92,128 108,128 118,112" stroke="#f4501e" stroke-width="7"/>
  </g>
</svg>
