<svg xmlns="http://www.w3.org/2000/svg" width="400" height="400" viewBox="0 0 200 200">
  <defs>
    <filter id="r20" x="-25%" y="-25%" width="150%" height="150%">
      <feTurbulence type="turbulence" baseFrequency="0.019" numOctaves="2" seed="20" result="n"/>
      <feDisplacementMap in="SourceGraphic" in2="n" scale="3.6"/>
    </filter>
  </defs>
  <g filter="url(#r20)" fill="none" stroke="#141414" stroke-width="9" stroke-linecap="round" stroke-linejoin="round">
    <path d="M88,60 C58,60 50,88 50,100 C50,112 58,140 88,140" stroke-width="13"/>
    <path d="M112,60 C142,60 150,88 150,100 C150,112 142,140 112,140" stroke-width="13"/>
    <path d="M100,82 L100,58 M100,118 L100,142 M82,100 L58,100 M118,100 L142,100 M86,86 L70,70 M114,114 L130,130 M114,86 L130,70 M86,114 L70,130" stroke="#f4501e" stroke-width="6"/>
  </g>
</svg>
