<svg xmlns="http://www.w3.org/2000/svg" width="400" height="400" viewBox="0 0 200 200">
  <defs>
    <filter id="r21" x="-25%" y="-25%" width="150%" height="150%">
      <feTurbulence type="turbulence" baseFrequency="0.019" numOctaves="2" seed="21" result="n"/>
      <feDisplacementMap in="SourceGraphic" in2="n" scale="3.6"/>
    </filter>
  </defs>
  <g filter="url(#r21)" fill="none" stroke="#141414" stroke-width="9" stroke-linecap="round" stroke-linejoin="round">
    <path d="M100,162 C58,130 38,104 38,80 C38,58 56,44 76,52 C88,57 96,68 100,76 C104,68 112,57 124,52 C144,44 162,58 162,80 C162,104 142,130 100,162 Z" fill="#f4501e" stroke="#f4501e" stroke-width="6"/>
    <circle cx="82" cy="86" r="5" fill="#141414" stroke="none"/>
    <circle cx="118" cy="86" r="5" fill="#141414" stroke="none"/>
    <path d="M74,104 C86,126 114,126 126,104 C114,120 86,120 74,104 Z" fill="#141414" stroke="#141414" stroke-width="4"/>
    <path d="M88,112 C94,120 106,120 112,112" stroke="#f4501e" stroke-width="5"/>
  </g>
</svg>
