<svg xmlns="http://www.w3.org/2000/svg" width="400" height="400" viewBox="0 0 200 200">
  <defs>
    <filter id="r22" x="-25%" y="-25%" width="150%" height="150%">
      <feTurbulence type="turbulence" baseFrequency="0.019" numOctaves="2" seed="22" result="n"/>
      <feDisplacementMap in="SourceGraphic" in2="n" scale="3.6"/>
    </filter>
  </defs>
  <g filter="url(#r22)" fill="none" stroke="#141414" stroke-width="9" stroke-linecap="round" stroke-linejoin="round">
    <path d="M100,22 L114,54 L146,40 L132,72 L166,82 L132,98 L152,130 L116,120 L110,156 L92,124 L58,142 L70,106 L36,110 L64,88 L40,60 L74,66 L76,30 L96,56 Z" stroke-width="8"/>
    <path d="M84,86 C90,80 98,80 102,88 M104,104 C110,98 118,98 122,106" stroke="#f4501e" stroke-width="7"/>
    <circle cx="100" cy="98" r="4" fill="#f4501e" stroke="none"/>
  </g>
</svg>
