<svg xmlns="http://www.w3.org/2000/svg" width="400" height="400" viewBox="0 0 200 200">
  <defs>
    <filter id="r23" x="-25%" y="-25%" width="150%" height="150%">
      <feTurbulence type="turbulence" baseFrequency="0.019" numOctaves="2" seed="23" result="n"/>
      <feDisplacementMap in="SourceGraphic" in2="n" scale="3.6"/>
    </filter>
  </defs>
  <g filter="url(#r23)" fill="none" stroke="#141414" stroke-width="9" stroke-linecap="round" stroke-linejoin="round">
    <ellipse cx="100" cy="50" rx="9" ry="20" transform="rotate(0 100 86)" fill="none" stroke="#141414" stroke-width="6"/>
    <ellipse cx="100" cy="50" rx="9" ry="20" transform="rotate(45 100 86)" fill="none" stroke="#141414" stroke-width="6"/>
    <ellipse cx="100" cy="50" rx="9" ry="20" transform="rotate(90 100 86)" fill="none" stroke="#141414" stroke-width="6"/>
    <ellipse cx="100" cy="50" rx="9" ry="20" transform="rotate(135 100 86)" fill="none" stroke="#141414" stroke-width="6"/>
    <ellipse cx="100" cy="50" rx="9" ry="20" transform="rotate(180 100 86)" fill="none" stroke="#141414" stroke-width="6"/>
    <ellipse cx="100" cy="50" rx="9" ry="20" transform="rotate(225 100 86)" fill="none" stroke="#141414" stroke-width="6"/>
    <ellipse cx="100" cy="50" rx="9" ry="20" transform="rotate(270 100 86)" fill="none" stroke="#141414" stroke-width="6"/>
    <ellipse cx="100" cy="50" rx="9" ry="20" transform="rotate(315 100 86)" fill="none" stroke="#141414" stroke-width="6"/>
    <path d="M100,112 C105,138 95,160 101,188" stroke="#141414" stroke-width="7"/>
    <path d="M100,150 C120,140 134,148 129,165 C112,170 101,161 100,150 Z" stroke="#141414" stroke-width="6"/>
    <circle cx="100" cy="86" r="23" fill="#f4501e" stroke="#f4501e" stroke-width="4"/>
    <circle cx="92" cy="82" r="3.4" fill="#141414" stroke="none"/>
    <circle cx="108" cy="82" r="3.4" fill="#141414" stroke="none"/>
    <path d="M90,94 C96,102 104,102 110,94" stroke="#141414" stroke-width="4"/>
  </g>
</svg>
