<svg xmlns="http://www.w3.org/2000/svg" width="1050" height="600" viewBox="0 0 525 300" font-family="sans-serif">
  <defs>
    <linearGradient id="flove" x1="12" y1="0" x2="88" y2="0" gradientUnits="userSpaceOnUse">
      <stop offset="0" stop-color="#ff3344"/>
      <stop offset=".5" stop-color="#ff8a3a"/>
      <stop offset="1" stop-color="#ffd633"/>
    </linearGradient>
    <radialGradient id="halo" cx="0.5" cy="0.5" r="0.5">
      <stop offset="0" stop-color="#ffd6a8" stop-opacity="0.85"/>
      <stop offset="1" stop-color="#ffd6a8" stop-opacity="0"/>
    </radialGradient>
    <filter id="soft" x="-60%" y="-60%" width="220%" height="220%"><feGaussianBlur stdDeviation="14"/></filter>
    <clipPath id="card"><rect x="0" y="0" width="525" height="300" rx="22"/></clipPath>
  </defs>

  <g clip-path="url(#card)">
    <rect width="525" height="300" fill="#fffdfb"/>

    <!-- dreamy halo behind the mark -->
    <circle cx="402" cy="150" r="118" fill="url(#halo)" filter="url(#soft)"/>

    <!-- flove mark (the F) on the right -->
    <g transform="translate(322,68) scale(1.62)">
      <path d="M50 60 C 22 60, 12 38, 16 18 C 38 22, 54 38, 50 60 Z" fill="url(#flove)"/>
      <path d="M50 60 C 78 60, 88 38, 84 18 C 62 22, 46 38, 50 60 Z" fill="url(#flove)"/>
      <path d="M50 58 C 50 72, 50 84, 50 92" stroke="url(#flove)" stroke-width="5" stroke-linecap="round" fill="none"/>
    </g>

    <!-- wordmark + slogan -->
    <text x="42" y="120" fill="#2b2733" font-family="'Trebuchet MS', sans-serif" font-size="50" font-weight="bold" letter-spacing="-0.5">flove<tspan fill="#c08a5a" font-weight="normal" font-size="32">.org</tspan></text>
    <text x="44" y="150" fill="#9a8f86" font-size="15" letter-spacing="4">all near</text>

    <!-- contact -->
    <text x="44" y="245" fill="#2b2733" font-size="16.5" letter-spacing="2">665 026 106</text>
    <text x="44" y="269" fill="#6c6358" font-size="15">marc@flove.org</text>
  </g>
</svg>
