<svg xmlns="http://www.w3.org/2000/svg" viewBox="0 0 200 200" width="200" height="200" role="img" aria-label="Panda neutral">
  <title>Panda neutral</title>
  <defs>
    <!-- pie redondeado tipo botín; el puño marca el tobillo (lo separa de la pierna) -->
    <g id="foot">
      <path d="M84 170Q80 179 80 187Q80 196 89 196Q98 196 98 187Q98 179 94 170Z" fill="#fff" stroke="#2b2b2b" stroke-width="1.5"/>
      <path d="M80.2 185Q80.5 196 89 196Q97.5 196 97.8 185Q97 193.5 89 194Q81 193.5 80.2 185Z" fill="#000" opacity="0.11"/>
      <path d="M82 190Q83 196 89 196Q95 196 96 190Q95 194 89 194.6Q83 194 82 190Z" fill="#000" opacity="0.1"/>
      <rect x="81" y="168" width="16" height="6.5" rx="3.25" fill="#fff" stroke="#2b2b2b" stroke-width="1.5"/>
      <path d="M84 181H94" fill="none" stroke="#ff9ec2" stroke-width="2" stroke-linecap="round"/>
    </g>
  </defs>

  <!-- fill negro por defecto; el blanco/rosa se declara donde toca -->
  <g class="panda" data-emotion="neutral" fill="#2b2b2b" stroke-linejoin="round">
    <!-- piernas (borde blanco fino tipo pegatina) -->
    <g class="legs" stroke="#fff" stroke-width="0.875">
      <rect x="83.5" y="150" width="11" height="30" rx="5.5"/>
      <rect x="105.5" y="150" width="11" height="30" rx="5.5"/>
    </g>

    <!-- pies (botines redondos), abiertos un poco hacia fuera -->
    <use href="#foot" transform="rotate(-6 89 184)"/>
    <use href="#foot" transform="matrix(-1 0 0 1 200 0) rotate(-6 89 184)"/>

    <!-- brazos: hombros arrancan más arriba y DETRAS del cuerpo (integrados), antebrazos más largos; manita original de deditos gordos -->
    <g class="arms" stroke="#fff" stroke-width="0.875">
      <path class="arm-l" d="M86 108Q66 104 58 120L58 162A2.75 2.75 0 0 0 63.5 162L63.5 157Q64.4 158.5 65.25 157L65.25 162.5A2.75 2.75 0 0 0 70.75 162.5L70.75 157Q71.6 158.5 72.5 157L72.5 162A2.75 2.75 0 0 0 78 162L78 157Q78 143 76 139L86 108Z"/>
      <path class="arm-r" d="M114 108Q134 104 142 120L142 162A2.75 2.75 0 0 1 136.5 162L136.5 157Q135.6 158.5 134.75 157L134.75 162.5A2.75 2.75 0 0 1 129.25 162.5L129.25 157Q128.4 158.5 127.5 157L127.5 162A2.75 2.75 0 0 1 122 162L122 157Q122 143 124 139L114 108Z"/>
    </g>

    <!-- torso (tapa los hombros -> brazos integrados) -->
    <ellipse class="body" cx="100" cy="126" rx="27" ry="28" fill="#fff" stroke="#2b2b2b" stroke-width="3"/>

    <!-- cabeza + cara como un solo grupo (se mueven juntas al animar) -->
    <g class="head">
      <g class="ears" stroke="#fff" stroke-width="0.875">
        <circle cx="64" cy="26" r="16"/>
        <circle cx="136" cy="26" r="16"/>
      </g>
      <circle cx="64" cy="26" r="8" fill="#5b4a4a"/>
      <circle cx="136" cy="26" r="8" fill="#5b4a4a"/>
      <circle class="skull" cx="100" cy="56" r="46" fill="#fff" stroke="#2b2b2b" stroke-width="3"/>

      <g class="patches">
        <path id="patch" d="M71 29C63 33 67 55 80 62C90 66 97 56 94 47C93 34 81 26 71 29Z"/>
        <use href="#patch" transform="matrix(-1 0 0 1 200 0)"/>
      </g>

      <g class="eyes">
        <path id="eyew" d="M77 52Q83 47 91 59Q84 60 77 52Z" fill="#fff"/>
        <use href="#eyew" transform="matrix(-1 0 0 1 200 0)"/>
        <circle cx="85" cy="55" r="3.6"/>
        <circle cx="115" cy="55" r="3.6"/>
        <circle cx="84" cy="53" r="1.4" fill="#fff"/>
        <circle cx="116" cy="53" r="1.4" fill="#fff"/>
      </g>

      <ellipse class="nose" cx="100" cy="69" rx="5.8" ry="4"/>
      <path class="mouth" d="M100 73V77M93 80Q100 83 107 80" fill="none" stroke="#2b2b2b" stroke-width="2.5" stroke-linecap="round"/>
    </g>
  </g>
</svg>
